<?xml version="1.0" encoding="utf-8"?>
<svg version="1.1" xmlns:xlink="http://www.w3.org/1999/xlink" width="40px" height="40px" xmlns="http://www.w3.org/2000/svg">
  <g transform="matrix(1 0 0 1 -1071 -427 )">
    <path d="M 1072 447  A 19 19 0 0 1 1091 428 A 19 19 0 0 1 1110 447 A 19 19 0 0 1 1091 466 A 19 19 0 0 1 1072 447 Z " fill-rule="nonzero" fill="#ffffff" stroke="none" />
    <path d="M 1071.5 447  A 19.5 19.5 0 0 1 1091 427.5 A 19.5 19.5 0 0 1 1110.5 447 A 19.5 19.5 0 0 1 1091 466.5 A 19.5 19.5 0 0 1 1071.5 447 Z " stroke-width="1" stroke-dasharray="3,1" stroke="#cccccc" fill="none" stroke-dashoffset="0.5" />
  </g>
</svg>