<?xml version="1.0" encoding="utf-8"?>
<svg version="1.1" xmlns:xlink="http://www.w3.org/1999/xlink" width="40px" height="40px" xmlns="http://www.w3.org/2000/svg">
  <g transform="matrix(1 0 0 1 -830 -181 )">
    <path d="M 831 201  A 19 19 0 0 1 850 182 A 19 19 0 0 1 869 201 A 19 19 0 0 1 850 220 A 19 19 0 0 1 831 201 Z " fill-rule="nonzero" fill="#ffffff" stroke="none" />
    <path d="M 830.5 201  A 19.5 19.5 0 0 1 850 181.5 A 19.5 19.5 0 0 1 869.5 201 A 19.5 19.5 0 0 1 850 220.5 A 19.5 19.5 0 0 1 830.5 201 Z " stroke-width="1" stroke-dasharray="3,1" stroke="#cccccc" fill="none" stroke-dashoffset="0.5" />
  </g>
</svg>