<?xml version="1.0" encoding="utf-8"?>
<!-- Generator: Adobe Illustrator 21.0.0, SVG Export Plug-In . SVG Version: 6.00 Build 0)  -->
<svg version="1.1" id="图层_1" xmlns="http://www.w3.org/2000/svg" xmlns:xlink="http://www.w3.org/1999/xlink" x="0px" y="0px"
	 viewBox="0 0 1024 1024" style="enable-background:new 0 0 1024 1024;" xml:space="preserve">
<style type="text/css">
	.st0{display:none;}
	.st1{display:inline;}
	.st2{opacity:0.25;}
	.st3{display:inline;opacity:0.25;}
	.st4{enable-background:new    ;}
	.st5{fill:url(#SVGID_1_);}
	.st6{fill:url(#SVGID_2_);}
	.st7{fill:url(#SVGID_3_);}
	.st8{fill:url(#SVGID_4_);}
	.st9{fill:url(#SVGID_5_);}
	.st10{fill:url(#SVGID_6_);}
	.st11{fill:url(#SVGID_7_);}
	.st12{clip-path:url(#SVGID_10_);enable-background:new    ;}
	.st13{fill:url(#SVGID_11_);}
	.st14{fill:url(#SVGID_12_);}
	.st15{clip-path:url(#SVGID_15_);enable-background:new    ;}
	.st16{fill:url(#SVGID_16_);}
	.st17{clip-path:url(#SVGID_19_);enable-background:new    ;}
	.st18{fill:url(#SVGID_20_);}
	.st19{fill:url(#SVGID_21_);}
	.st20{fill:url(#SVGID_22_);}
	.st21{fill:url(#SVGID_23_);}
	.st22{clip-path:url(#SVGID_26_);enable-background:new    ;}
	.st23{fill:url(#SVGID_27_);}
	.st24{fill:url(#SVGID_28_);}
	.st25{fill:url(#SVGID_29_);}
	.st26{fill:url(#SVGID_30_);}
	.st27{fill:url(#SVGID_31_);}
	.st28{fill:url(#SVGID_32_);}
	.st29{clip-path:url(#SVGID_35_);enable-background:new    ;}
	.st30{fill:url(#SVGID_36_);}
	.st31{fill:url(#SVGID_37_);}
	.st32{fill:url(#SVGID_38_);}
	.st33{fill:url(#SVGID_39_);}
	.st34{fill:url(#SVGID_40_);}
	.st35{fill:url(#SVGID_41_);}
	.st36{fill:url(#SVGID_42_);}
	.st37{clip-path:url(#SVGID_45_);enable-background:new    ;}
	.st38{fill:url(#SVGID_46_);}
	.st39{fill:url(#SVGID_47_);}
	.st40{clip-path:url(#SVGID_50_);enable-background:new    ;}
	.st41{fill:url(#SVGID_51_);}
	.st42{fill:url(#SVGID_52_);}
	.st43{fill:url(#SVGID_53_);}
	.st44{fill:url(#SVGID_54_);}
	.st45{fill:url(#SVGID_55_);}
	.st46{fill:url(#SVGID_56_);}
	.st47{fill:url(#SVGID_57_);}
	.st48{fill:url(#SVGID_58_);}
	.st49{fill:url(#SVGID_59_);}
	.st50{fill:url(#SVGID_60_);}
	.st51{fill:url(#SVGID_61_);}
	.st52{fill:url(#SVGID_62_);}
	.st53{clip-path:url(#SVGID_65_);enable-background:new    ;}
	.st54{fill:url(#SVGID_66_);}
	.st55{fill:url(#SVGID_67_);}
	.st56{fill:url(#SVGID_68_);}
	.st57{fill:url(#SVGID_69_);}
	.st58{fill:url(#SVGID_70_);}
	.st59{fill:url(#SVGID_71_);}
	.st60{fill:url(#SVGID_72_);}
	.st61{fill:url(#SVGID_73_);}
	.st62{fill:url(#SVGID_74_);}
	.st63{fill:url(#SVGID_75_);}
</style>
<g id="图层_1_1_" class="st0">
	<g id="bg" class="st1">
		<g id="图层_2">
			<g id="图标参考线">
				<g id="图标尺寸" class="st2">
					<path d="M1018.2,5.8v1012.5H5.8V5.8H1018.2 M1024,0H0v1024h1024V0z"/>
					<path d="M512,28.8c266.9,0,483.2,216.4,483.2,483.2S778.9,995.2,512,995.2S28.8,778.9,28.8,512S245.1,28.8,512,28.8 M512,23
						C241.9,23,23,241.9,23,512s218.9,489,489,489s489-218.9,489-489C1000.7,242,782,23.3,512,23z"/>
					<path d="M949.2,74.8v874.4H74.8V74.8H949.2 M955,69H69v886h886V69z"/>
					<path d="M995.2,28.8v966.5H28.8V28.8H995.2 M1001,23H23v978h978V23z"/>
					<path d="M995.2,189.8v644.3H28.8V189.8H995.2 M1001,184.1H23v655.8h978V184.1z"/>
				</g>
			</g>
		</g>
	</g>
	<g id="图标尺寸_1_" class="st3">
		<g>
			<path d="M1017.1,4.6v1010.2H6.9V4.6H1017.1 M1021.7,0h-6.9H4.6H0v6.9v1010.2v6.9h6.9h1010.2h6.9v-6.9V6.9V0H1021.7z"/>
		</g>
		<g>
			<path d="M512,27.6c266.3,0,482.2,215.8,482.2,482.2S778.3,991.9,512,991.9S29.8,776.1,29.8,509.7S245.7,27.6,512,27.6 M512,23
				C243.4,23,23,241.1,23,509.7s218.1,486.7,489,486.7s489-218.1,489-486.7S780.6,23,512,23L512,23z"/>
		</g>
		<g>
			<path d="M948.2,73.5V946H75.8V73.5H948.2 M952.8,68.9h-6.9H73.5h-4.6v6.9v872.5v6.9h6.9h872.5h6.9v-6.9V75.8v-6.9H952.8z"/>
		</g>
		<g>
			<path d="M994.1,27.6v964.3H29.8V27.6H994.1 M998.7,23h-6.9H27.5h-4.6v6.9v964.3v6.9h6.9h964.3h6.9v-6.9V29.9V23H998.7z"/>
		</g>
		<g>
			<path d="M994.1,188.3v642.9H29.8V188.3H994.1 M998.7,183.7h-6.9H27.5h-4.6v4.6v642.9v6.9h6.9h964.3h6.9v-6.9V188.3v-4.6H998.7z"
				/>
		</g>
	</g>
</g>
<g>
	<g class="st4">
		<linearGradient id="SVGID_1_" gradientUnits="userSpaceOnUse" x1="89.575" y1="804.0938" x2="949.8076" y2="804.0938">
			<stop  offset="0" style="stop-color:#8EB0EC"/>
			<stop  offset="1" style="stop-color:#6386DB"/>
		</linearGradient>
		<path class="st5" d="M949.6,618.8c-0.1,0.9-0.1,1.7-0.3,2.6c-0.1,0.7-0.3,1.4-0.5,2.1c-0.2,0.8-0.4,1.7-0.7,2.5
			c-0.2,0.7-0.6,1.4-0.9,2c-0.4,0.9-0.8,1.7-1.2,2.6c-0.3,0.6-0.7,1.2-1.1,1.8c-0.6,1-1.2,1.9-2,2.9c-0.7,0.9-1.4,1.8-2.2,2.7
			c-0.2,0.2-0.4,0.4-0.6,0.6c-1.1,1.2-2.3,2.3-3.5,3.4c-0.8,0.7-1.7,1.4-2.6,2.1c-0.8,0.6-1.5,1.2-2.3,1.8c-0.9,0.7-2,1.3-3,2
			c-1,0.7-2,1.4-3.2,2L580,851.1c-2.5,1.4-5.1,2.7-7.8,4c-0.8,0.4-1.6,0.7-2.4,1c-2.1,0.9-4.3,1.7-6.5,2.5c-0.8,0.3-1.6,0.6-2.4,0.8
			c-1.4,0.4-2.8,0.8-4.3,1.2c-1.1,0.3-2.2,0.6-3.3,0.9c-1.5,0.4-3.1,0.7-4.6,1c-1,0.2-2.1,0.4-3.1,0.6c-3.1,0.5-6.3,1-9.5,1.3
			c-1,0.1-2,0.2-3,0.2c-1.9,0.2-3.7,0.3-5.6,0.4c-1.2,0.1-2.4,0.1-3.6,0.1c-1.5,0-3,0-4.6,0c-1.3,0-2.5-0.1-3.8-0.1
			c-1.4-0.1-2.8-0.1-4.2-0.2c-1.3-0.1-2.6-0.2-3.8-0.3c-1.4-0.1-2.8-0.3-4.1-0.5c-1.2-0.2-2.5-0.3-3.7-0.5c-1.5-0.2-2.9-0.5-4.4-0.8
			c-1.2-0.2-2.3-0.4-3.5-0.7c-1.7-0.4-3.5-0.8-5.2-1.3c-1-0.3-1.9-0.5-2.9-0.8c-3.1-0.9-6-1.9-8.9-3c-1.4-0.6-2.8-1.2-4.2-1.8
			c-0.7-0.3-1.4-0.6-2.1-0.9c-2.1-1-4.1-2.1-6.1-3.2L114.5,650.2c-16.4-9.5-24.6-21.9-24.6-34.3L89.6,743c0,12.4,8.2,24.8,24.6,34.3
			l347.9,200.9c2,1.1,4,2.2,6.1,3.2c0.7,0.3,1.5,0.6,2.2,0.9c1.2,0.5,2.4,1.1,3.7,1.6c0.1,0.1,0.3,0.1,0.5,0.2
			c2.9,1.1,5.9,2.1,8.9,3c0.2,0.1,0.5,0.2,0.7,0.2c0.7,0.2,1.4,0.3,2.1,0.5c1.7,0.5,3.4,0.9,5.2,1.3c0.5,0.1,0.9,0.2,1.4,0.3
			c0.7,0.1,1.4,0.2,2.1,0.4c1.5,0.3,2.9,0.5,4.4,0.8c0.6,0.1,1.2,0.2,1.8,0.3c0.6,0.1,1.3,0.1,1.9,0.2c1.4,0.2,2.8,0.3,4.2,0.5
			c0.7,0.1,1.3,0.2,2,0.2c0.6,0.1,1.2,0.1,1.9,0.1c1.4,0.1,2.8,0.2,4.2,0.2c0.7,0,1.4,0.1,2.1,0.1c0.6,0,1.1,0,1.7,0
			c1.5,0,3,0,4.6,0c0.8,0,1.5,0,2.3,0c0.4,0,0.9-0.1,1.3-0.1c1.9-0.1,3.8-0.2,5.6-0.4c0.8-0.1,1.5-0.1,2.3-0.2
			c0.2,0,0.5-0.1,0.7-0.1c3.2-0.3,6.3-0.8,9.5-1.3c0.2,0,0.3,0,0.5-0.1c0.9-0.2,1.8-0.4,2.7-0.6c1.5-0.3,3.1-0.6,4.6-1
			c1.1-0.3,2.2-0.6,3.3-0.9c1.4-0.4,2.9-0.8,4.3-1.2c0.3-0.1,0.6-0.2,0.9-0.3c0.5-0.2,1-0.4,1.5-0.6c2.2-0.8,4.4-1.6,6.5-2.5
			c0.8-0.3,1.6-0.7,2.4-1c2.7-1.2,5.3-2.5,7.8-4l345.7-200.9c0.3-0.2,0.7-0.4,1-0.6c0.8-0.5,1.4-1,2.1-1.4c1-0.7,2.1-1.3,3-2
			c0.8-0.6,1.6-1.2,2.3-1.8c0.9-0.7,1.8-1.4,2.6-2.1c0.2-0.1,0.4-0.3,0.5-0.4c1.1-1,2.1-2,3-3c0.2-0.2,0.4-0.4,0.6-0.6
			c0.6-0.6,1.1-1.2,1.6-1.9c0.2-0.3,0.4-0.6,0.6-0.8c0.7-1,1.4-1.9,2-2.9c0.3-0.4,0.6-0.8,0.8-1.2c0.1-0.2,0.2-0.4,0.3-0.6
			c0.5-0.9,0.8-1.7,1.2-2.6c0.2-0.5,0.5-1,0.7-1.5c0.1-0.2,0.1-0.3,0.1-0.5c0.3-0.8,0.5-1.7,0.7-2.5c0.1-0.6,0.4-1.1,0.5-1.7
			c0-0.1,0-0.3,0.1-0.4c0.2-0.9,0.2-1.7,0.3-2.6c0.1-0.6,0.2-1.1,0.2-1.7c0-0.2,0-0.5,0-0.7l0.4-127.1
			C949.8,617.2,949.7,618,949.6,618.8z"/>
		<g>
			<linearGradient id="SVGID_2_" gradientUnits="userSpaceOnUse" x1="89.9354" y1="616.1642" x2="949.8077" y2="616.1642">
				<stop  offset="0" style="stop-color:#6386DB"/>
				<stop  offset="1" style="stop-color:#8EB0EC"/>
			</linearGradient>
			<path class="st6" d="M925.3,582.1c32.6,18.8,32.7,49.3,0.4,68.1L580,851.1c-32.3,18.8-85,18.8-117.6,0L114.5,650.2
				c-32.6-18.8-32.8-49.3-0.4-68.1l345.7-200.9c32.4-18.8,85-18.8,117.6,0L925.3,582.1z"/>
		</g>
	</g>
</g>
<g>
	<g class="st4">
		<linearGradient id="SVGID_3_" gradientUnits="userSpaceOnUse" x1="210.1712" y1="608.051" x2="827.4059" y2="608.051">
			<stop  offset="0" style="stop-color:#FFCB27"/>
			<stop  offset="1" style="stop-color:#FFA21E"/>
		</linearGradient>
		<path class="st7" d="M827.4,461.7c0,1.7-0.1,3.3-0.2,5c-0.1,1.4-0.2,2.8-0.3,4.3c-0.1,1.2-0.3,2.5-0.5,3.7
			c-0.2,1.4-0.4,2.8-0.7,4.2c-0.2,1.2-0.5,2.5-0.8,3.7c-0.3,1.4-0.6,2.8-1,4.1c-0.3,1.2-0.7,2.5-1.1,3.7c-0.4,1.4-0.9,2.7-1.4,4.1
			c-0.4,1.2-0.9,2.4-1.4,3.6c-0.6,1.4-1.2,2.9-1.8,4.3c-0.5,1.2-1.1,2.4-1.7,3.6c-0.7,1.4-1.4,2.8-2.2,4.2c-0.6,1.1-1.2,2.3-1.9,3.4
			c-1,1.7-2,3.3-3.1,5c-0.7,1-1.3,2-2,3c-1.3,1.8-2.6,3.7-4,5.5c-0.6,0.8-1.2,1.7-1.9,2.6c-0.3,0.4-0.7,0.8-1,1.2
			c-1.5,1.8-3,3.6-4.6,5.4c-0.4,0.5-0.9,1-1.3,1.5c-1.9,2.1-3.8,4.1-5.9,6.1c-0.4,0.4-0.8,0.7-1.1,1.1c-1.6,1.5-3.2,3-4.8,4.5
			c-1.3,1.2-2.7,2.4-4.1,3.6c-1.3,1.1-2.6,2.2-3.9,3.2c-1.4,1.2-2.9,2.3-4.4,3.5c-1.4,1.1-2.8,2.1-4.2,3.2c-1.6,1.1-3.2,2.2-4.8,3.4
			c-1.5,1-3,2-4.5,3.1c-1.7,1.1-3.4,2.2-5.1,3.2c-2.2,1.3-4.3,2.7-6.6,4l-25.8,15c-4.2,2.5-8.6,4.8-13,7.1c-1.3,0.6-2.6,1.3-3.8,1.9
			c-3.4,1.7-6.9,3.3-10.5,4.9c-1.2,0.5-2.4,1.1-3.6,1.6c-4.6,2-9.3,3.9-14.1,5.7c-0.9,0.3-1.7,0.6-2.6,0.9c-4,1.5-8.1,2.9-12.2,4.3
			c-1.7,0.6-3.4,1.1-5.1,1.7c-2.3,0.7-4.6,1.4-6.9,2.1c-1.9,0.6-3.9,1.1-5.9,1.7c-2.3,0.6-4.7,1.3-7,1.9c-2,0.5-3.9,1-5.9,1.5
			c-2.4,0.6-4.8,1.1-7.2,1.7c-2,0.4-4,0.9-6,1.3c-2.5,0.5-4.9,1-7.4,1.5c-1.9,0.4-3.8,0.7-5.7,1.1c-5.3,0.9-10.6,1.8-16,2.5
			c-0.8,0.1-1.6,0.2-2.3,0.3c-4.7,0.6-9.3,1.2-14,1.7c-1.8,0.2-3.6,0.4-5.4,0.5c-3,0.3-6.1,0.5-9.1,0.8c-1.9,0.1-3.8,0.3-5.7,0.4
			c-3.2,0.2-6.3,0.3-9.5,0.5c-1.8,0.1-3.6,0.2-5.3,0.2c-2.8,0.1-5.5,0.1-8.3,0.2c-1.9,0-3.8,0.1-5.8,0.1c-3,0-5.9,0-8.9-0.1
			c-1.7,0-3.5,0-5.2-0.1c-2.7-0.1-5.4-0.2-8.1-0.3c-1.9-0.1-3.8-0.1-5.6-0.2c-2.9-0.2-5.9-0.4-8.8-0.6c-1.6-0.1-3.3-0.2-4.9-0.3
			c-3.6-0.3-7.2-0.7-10.8-1c-0.9-0.1-1.9-0.2-2.8-0.3c-4.5-0.5-9-1.1-13.5-1.7c-0.8-0.1-1.5-0.2-2.3-0.4c-3.8-0.6-7.6-1.1-11.3-1.8
			c-1.6-0.3-3.2-0.6-4.8-0.9c-2.9-0.5-5.8-1.1-8.7-1.7c-1.5-0.3-3-0.7-4.5-1c-3.2-0.7-6.4-1.4-9.5-2.1c-1.8-0.4-3.5-0.9-5.2-1.3
			c-2.9-0.7-5.7-1.5-8.6-2.3c-1.6-0.4-3.2-0.9-4.8-1.4c-4.5-1.3-9-2.7-13.4-4.2c-0.8-0.3-1.6-0.5-2.4-0.8c-5.1-1.7-10-3.5-14.9-5.5
			c-2-0.8-4-1.6-5.9-2.4c-1.6-0.6-3.1-1.3-4.7-1.9c-2.2-1-4.4-1.9-6.6-2.9c-1.4-0.7-2.9-1.3-4.3-2c-2.4-1.1-4.7-2.3-7-3.5
			c-1.2-0.6-2.4-1.2-3.5-1.8c-3.4-1.8-6.8-3.7-10.2-5.6l-26-15c-55.7-32.2-83.5-74.4-83.4-116.6l-0.3,116.5
			c-0.1,42.2,27.7,84.4,83.4,116.6l26,15c3.3,1.9,6.7,3.8,10.2,5.6c1.1,0.6,2.3,1.2,3.5,1.7c2.3,1.2,4.7,2.4,7.1,3.5
			c1.4,0.7,2.8,1.3,4.3,1.9c2.2,1,4.4,2,6.6,3c1.5,0.7,3.1,1.3,4.7,1.9c1.5,0.6,3,1.3,4.5,1.9c0.5,0.2,1,0.3,1.4,0.5
			c4.9,1.9,9.9,3.7,14.9,5.5c0.8,0.3,1.6,0.5,2.4,0.8c4.4,1.5,8.8,2.8,13.3,4.1c0.7,0.2,1.5,0.5,2.2,0.7c0.9,0.2,1.7,0.5,2.6,0.7
			c2.8,0.8,5.7,1.5,8.6,2.3c1.7,0.4,3.5,0.9,5.2,1.3c3.2,0.8,6.3,1.5,9.5,2.1c1.2,0.3,2.4,0.6,3.5,0.8c0.3,0.1,0.7,0.1,1,0.2
			c2.9,0.6,5.8,1.1,8.7,1.7c1.6,0.3,3.2,0.6,4.8,0.9c3.8,0.6,7.5,1.2,11.3,1.8c0.7,0.1,1.5,0.2,2.2,0.3c0,0,0.1,0,0.1,0
			c4.5,0.6,9,1.2,13.5,1.7c1.1,0.1,2.1,0.2,3.2,0.3c3.5,0.4,6.9,0.7,10.4,1c0.1,0,0.2,0,0.3,0c1.6,0.1,3.2,0.2,4.8,0.3
			c2.9,0.2,5.8,0.4,8.7,0.6c1.9,0.1,3.8,0.2,5.7,0.2c2.7,0.1,5.4,0.2,8,0.3c0.2,0,0.4,0,0.7,0c1.5,0,3.1,0,4.6,0
			c2.9,0,5.9,0.1,8.8,0.1c1.9,0,3.8-0.1,5.8-0.1c2.8,0,5.5-0.1,8.3-0.2c0.5,0,1,0,1.5,0c1.3,0,2.6-0.1,3.8-0.2
			c3.2-0.1,6.4-0.3,9.5-0.5c1.9-0.1,3.8-0.3,5.7-0.4c3-0.2,6.1-0.5,9.1-0.8c1.1-0.1,2.1-0.2,3.2-0.3c0.7-0.1,1.5-0.2,2.2-0.3
			c4.7-0.5,9.4-1,14-1.7c0.8-0.1,1.6-0.2,2.3-0.3c5.4-0.8,10.7-1.6,16-2.5c0.5-0.1,1-0.1,1.5-0.2c1.4-0.3,2.8-0.6,4.2-0.8
			c2.5-0.5,4.9-0.9,7.4-1.5c2-0.4,4-0.9,6-1.3c2.4-0.5,4.8-1.1,7.2-1.7c2-0.5,4-1,5.9-1.5c2.4-0.6,4.7-1.2,7.1-1.9
			c2-0.5,3.9-1.1,5.8-1.7c2.3-0.7,4.6-1.4,6.9-2.1c1-0.3,2-0.6,3-0.9c0.7-0.2,1.4-0.5,2.1-0.7c4.1-1.4,8.2-2.8,12.3-4.3
			c0.8-0.3,1.7-0.6,2.6-0.9c4.8-1.8,9.5-3.7,14.1-5.7c1.2-0.5,2.4-1.1,3.6-1.6c3.6-1.6,7-3.2,10.5-4.9c1.3-0.6,2.6-1.3,3.8-1.9
			c4.4-2.3,8.8-4.6,13-7l25.8-15c1.2-0.7,2.3-1.4,3.4-2c1.1-0.6,2.1-1.3,3.1-2c1.7-1.1,3.5-2.2,5.1-3.3c1.5-1,3-2,4.5-3
			c1.6-1.1,3.2-2.2,4.8-3.4c1.4-1,2.8-2.1,4.2-3.1c1.5-1.1,3-2.3,4.4-3.5c1.3-1.1,2.6-2.1,3.9-3.2c1.4-1.2,2.8-2.4,4.1-3.6
			c0.5-0.5,1.1-1,1.7-1.5c1.1-1,2.1-2,3.2-3c0.4-0.4,0.8-0.7,1.1-1.1c2.1-2,4-4.1,5.9-6.1c0.4-0.5,0.9-1,1.3-1.5
			c1.6-1.8,3.1-3.6,4.6-5.4c0.3-0.4,0.7-0.8,1-1.2c0.1-0.2,0.3-0.4,0.4-0.5c0.5-0.7,1-1.4,1.5-2c1.4-1.8,2.7-3.6,4-5.5
			c0.7-1,1.3-2,2-3c1.1-1.7,2.1-3.3,3.1-5c0.3-0.5,0.6-0.9,0.8-1.4c0.4-0.7,0.7-1.4,1.1-2.1c0.8-1.4,1.5-2.8,2.2-4.2
			c0.6-1.2,1.1-2.4,1.7-3.6c0.6-1.4,1.2-2.8,1.8-4.3c0.3-0.6,0.6-1.3,0.8-1.9c0.2-0.6,0.4-1.2,0.6-1.7c0.5-1.4,0.9-2.7,1.4-4.1
			c0.4-1.2,0.8-2.5,1.1-3.7c0.4-1.4,0.7-2.7,1-4.1c0.2-0.7,0.4-1.5,0.5-2.2c0.1-0.5,0.1-1,0.2-1.5c0.3-1.4,0.5-2.8,0.7-4.2
			c0.2-1.2,0.3-2.5,0.5-3.7c0.1-1.4,0.2-2.8,0.3-4.3c0-0.8,0.2-1.7,0.2-2.5c0-0.8,0-1.7,0-2.5v0L827.4,461.7z"/>
		<g>
			<linearGradient id="SVGID_4_" gradientUnits="userSpaceOnUse" x1="210.5012" y1="460.896" x2="827.4062" y2="460.896">
				<stop  offset="0" style="stop-color:#FFCB27"/>
				<stop  offset="1" style="stop-color:#FFA21E"/>
			</linearGradient>
			<path class="st8" d="M744,345.2c110.7,63.9,111.3,167.5,1.3,231.5l-25.8,15c-110,63.9-288.9,63.9-399.6,0l-26-15
				c-110.7-63.9-111.3-167.6-1.3-231.5l25.8-15c110-63.9,288.9-63.9,399.6,0L744,345.2z"/>
		</g>
	</g>
</g>
<g>
	<g class="st4">
		<linearGradient id="SVGID_5_" gradientUnits="userSpaceOnUse" x1="89.5792" y1="460.9666" x2="949.8076" y2="460.9666">
			<stop  offset="0" style="stop-color:#8EB0EC"/>
			<stop  offset="1" style="stop-color:#6386DB"/>
		</linearGradient>
		<path class="st9" d="M949.6,275.7c-0.1,0.9-0.1,1.7-0.3,2.6c-0.1,0.7-0.3,1.4-0.5,2.1c-0.2,0.8-0.4,1.7-0.7,2.5
			c-0.2,0.7-0.6,1.4-0.9,2c-0.4,0.9-0.8,1.7-1.2,2.6c-0.3,0.6-0.7,1.2-1.1,1.8c-0.6,1-1.2,1.9-2,2.9c-0.7,0.9-1.4,1.8-2.2,2.7
			c-0.2,0.2-0.4,0.4-0.6,0.6c-1.1,1.2-2.3,2.3-3.5,3.4c-0.8,0.7-1.7,1.4-2.5,2.1c-0.8,0.6-1.5,1.2-2.3,1.8c-0.9,0.7-2,1.3-3,2
			c-1,0.7-2,1.4-3.2,2L580,508c-2.5,1.4-5.1,2.7-7.8,4c-0.8,0.4-1.6,0.7-2.4,1c-2.1,0.9-4.3,1.7-6.5,2.5c-0.8,0.3-1.6,0.6-2.4,0.8
			c-1.4,0.4-2.8,0.8-4.3,1.2c-1.1,0.3-2.2,0.6-3.3,0.9c-1.5,0.4-3,0.7-4.6,1c-1.1,0.2-2.1,0.5-3.2,0.6c-3.1,0.5-6.3,1-9.5,1.3
			c-1,0.1-2,0.2-3,0.2c-1.9,0.2-3.7,0.3-5.6,0.4c-1.2,0.1-2.4,0.1-3.6,0.1c-1.5,0-3,0-4.5,0c-1.3,0-2.5-0.1-3.8-0.1
			c-1.4-0.1-2.8-0.1-4.2-0.2c-1.3-0.1-2.6-0.2-3.8-0.3c-1.4-0.1-2.8-0.3-4.1-0.5c-1.2-0.2-2.5-0.3-3.7-0.5c-1.5-0.2-2.9-0.5-4.4-0.8
			c-1.2-0.2-2.3-0.4-3.5-0.7c-1.7-0.4-3.4-0.8-5.1-1.3c-1-0.3-1.9-0.5-2.9-0.8c-3-0.9-6-1.9-8.9-3c-1.4-0.6-2.8-1.2-4.2-1.8
			c-0.7-0.3-1.4-0.6-2.1-0.9c-2.1-1-4.1-2.1-6.1-3.2L114.5,307.1c-16.4-9.5-24.6-21.9-24.6-34.3l-0.4,127.1
			c0,12.4,8.2,24.8,24.6,34.3l347.9,200.9c2,1.1,4,2.2,6.1,3.2c0.7,0.3,1.4,0.6,2.1,0.9c1.2,0.6,2.5,1.1,3.8,1.6
			c0.1,0.1,0.3,0.1,0.5,0.2c2.9,1.1,5.9,2.1,8.9,3c0.2,0.1,0.5,0.2,0.7,0.2c0.7,0.2,1.4,0.3,2.1,0.5c1.7,0.5,3.4,0.9,5.2,1.3
			c0.5,0.1,0.9,0.2,1.4,0.3c0.7,0.1,1.4,0.2,2.1,0.4c1.5,0.3,2.9,0.5,4.4,0.8c0.6,0.1,1.2,0.2,1.8,0.3c0.6,0.1,1.3,0.1,2,0.2
			c1.4,0.2,2.8,0.3,4.2,0.5c0.7,0.1,1.3,0.2,2,0.2c0.6,0.1,1.2,0.1,1.9,0.1c1.4,0.1,2.8,0.2,4.2,0.2c0.7,0,1.4,0.1,2.1,0.1
			c0.6,0,1.1,0,1.7,0c1.5,0,3,0,4.5,0c0.8,0,1.5,0,2.3,0c0.5,0,0.9-0.1,1.3-0.1c1.9-0.1,3.7-0.2,5.6-0.4c0.8-0.1,1.5-0.1,2.3-0.2
			c0.2,0,0.5-0.1,0.7-0.1c3.2-0.3,6.3-0.8,9.5-1.3c0.2,0,0.3,0,0.5-0.1c0.9-0.2,1.8-0.4,2.7-0.6c1.5-0.3,3.1-0.6,4.6-1
			c1.1-0.3,2.2-0.6,3.3-0.9c1.4-0.4,2.9-0.8,4.3-1.2c0.3-0.1,0.6-0.2,0.9-0.3c0.5-0.2,1-0.4,1.5-0.6c2.2-0.8,4.4-1.6,6.5-2.5
			c0.8-0.3,1.6-0.7,2.4-1c2.7-1.2,5.4-2.5,7.8-4l345.6-200.9c0.3-0.2,0.7-0.4,1-0.6c0.8-0.5,1.4-1,2.1-1.4c1-0.7,2.1-1.3,3-2
			c0.8-0.6,1.6-1.2,2.3-1.8c0.9-0.7,1.8-1.4,2.6-2.1c0.2-0.1,0.4-0.3,0.5-0.4c1.1-1,2.1-2,3-3c0.2-0.2,0.4-0.4,0.6-0.7
			c0.6-0.6,1.1-1.2,1.6-1.9c0.2-0.3,0.4-0.6,0.6-0.8c0.7-1,1.4-1.9,2-2.9c0.3-0.4,0.6-0.8,0.8-1.2c0.1-0.2,0.2-0.4,0.3-0.6
			c0.5-0.9,0.8-1.7,1.2-2.6c0.2-0.5,0.5-1,0.7-1.5c0.1-0.2,0.1-0.3,0.1-0.5c0.3-0.8,0.5-1.7,0.7-2.5c0.1-0.6,0.4-1.1,0.5-1.7
			c0-0.1,0-0.3,0.1-0.4c0.2-0.9,0.2-1.7,0.3-2.6c0.1-0.6,0.2-1.1,0.2-1.7c0-0.2,0-0.5,0-0.7l0.4-127.1
			C949.8,274.1,949.7,274.9,949.6,275.7z"/>
		<g>
			<linearGradient id="SVGID_6_" gradientUnits="userSpaceOnUse" x1="89.9396" y1="273.0335" x2="949.8076" y2="273.0335">
				<stop  offset="0" style="stop-color:#6386DB"/>
				<stop  offset="1" style="stop-color:#8EB0EC"/>
			</linearGradient>
			<path class="st10" d="M925.3,239c32.6,18.8,32.7,49.3,0.4,68.1L580,508c-32.4,18.8-85,18.8-117.6,0L114.5,307.1
				c-32.6-18.8-32.8-49.3-0.4-68.1L459.7,38.1c32.4-18.8,85-18.8,117.6,0L925.3,239z"/>
		</g>
	</g>
</g>
<g>
	<g class="st4">
		<g>
			<linearGradient id="SVGID_7_" gradientUnits="userSpaceOnUse" x1="522.1784" y1="228.1256" x2="529.1968" y2="228.1256">
				<stop  offset="0" style="stop-color:#FFFFFF"/>
				<stop  offset="1" style="stop-color:#EBEBEB"/>
			</linearGradient>
			<polygon class="st11" points="529.2,215.4 529.1,240.8 522.2,240.8 522.3,215.4 			"/>
		</g>
		<g class="st4">
			<defs>
				<path id="SVGID_8_" class="st4" d="M531.6,240.9c-0.8,0-1.6,0-2.4,0l0.1-25.4c0.8,0,1.6,0,2.4,0
					C531.6,223.9,531.6,232.4,531.6,240.9z"/>
			</defs>
			<linearGradient id="SVGID_9_" gradientUnits="userSpaceOnUse" x1="529.1247" y1="228.1423" x2="531.645" y2="228.1423">
				<stop  offset="0" style="stop-color:#FFFFFF"/>
				<stop  offset="1" style="stop-color:#EBEBEB"/>
			</linearGradient>
			<use xlink:href="#SVGID_8_"  style="overflow:visible;fill:url(#SVGID_9_);"/>
			<clipPath id="SVGID_10_">
				<use xlink:href="#SVGID_8_"  style="overflow:visible;"/>
			</clipPath>
			<g class="st12">
				<linearGradient id="SVGID_11_" gradientUnits="userSpaceOnUse" x1="531.4218" y1="228.2953" x2="536.7389" y2="228.2953">
					<stop  offset="0" style="stop-color:#FFFFFF"/>
					<stop  offset="1" style="stop-color:#EBEBEB"/>
				</linearGradient>
				<path class="st13" d="M536.7,215.7l-0.1,25.4c-1.7-0.1-3.5-0.2-5.2-0.3l0.1-25.4C533.3,215.5,535,215.6,536.7,215.7"/>
				<linearGradient id="SVGID_12_" gradientUnits="userSpaceOnUse" x1="529.1247" y1="228.1403" x2="531.4939" y2="228.1403">
					<stop  offset="0" style="stop-color:#FFFFFF"/>
					<stop  offset="1" style="stop-color:#EBEBEB"/>
				</linearGradient>
				<path class="st14" d="M531.5,215.4l-0.1,25.4c-0.8,0-1.5,0-2.3,0l0.1-25.4C530,215.4,530.7,215.4,531.5,215.4"/>
			</g>
		</g>
		<g class="st4">
			<defs>
				<path id="SVGID_13_" class="st4" d="M531.6,240.9c0-8.5,0-16.9,0.1-25.4c0,0,0,0,0,0C531.6,223.9,531.6,232.4,531.6,240.9
					C531.6,240.9,531.6,240.9,531.6,240.9z"/>
			</defs>
			<linearGradient id="SVGID_14_" gradientUnits="userSpaceOnUse" x1="531.5729" y1="228.159" x2="531.6522" y2="228.159">
				<stop  offset="0" style="stop-color:#FFFFFF"/>
				<stop  offset="1" style="stop-color:#EBEBEB"/>
			</linearGradient>
			<use xlink:href="#SVGID_13_"  style="overflow:visible;fill:url(#SVGID_14_);"/>
			<clipPath id="SVGID_15_">
				<use xlink:href="#SVGID_13_"  style="overflow:visible;"/>
			</clipPath>
			<g class="st15">
				<linearGradient id="SVGID_16_" gradientUnits="userSpaceOnUse" x1="531.4218" y1="228.2953" x2="536.7389" y2="228.2953">
					<stop  offset="0" style="stop-color:#FFFFFF"/>
					<stop  offset="1" style="stop-color:#EBEBEB"/>
				</linearGradient>
				<path class="st16" d="M536.7,215.7l-0.1,25.4c-1.7-0.1-3.5-0.2-5.2-0.3l0.1-25.4C533.3,215.5,535,215.6,536.7,215.7"/>
			</g>
		</g>
		<g class="st4">
			<defs>
				<path id="SVGID_17_" class="st4" d="M522.3,215.4l-0.1,25.4c-2.7,0-5.4,0.1-8,0.3l0.1-25.4C516.9,215.5,519.5,215.4,522.3,215.4
					z"/>
			</defs>
			<linearGradient id="SVGID_18_" gradientUnits="userSpaceOnUse" x1="514.2245" y1="228.2981" x2="522.2504" y2="228.2981">
				<stop  offset="0" style="stop-color:#FFFFFF"/>
				<stop  offset="1" style="stop-color:#EBEBEB"/>
			</linearGradient>
			<use xlink:href="#SVGID_17_"  style="overflow:visible;fill:url(#SVGID_18_);"/>
			<clipPath id="SVGID_19_">
				<use xlink:href="#SVGID_17_"  style="overflow:visible;"/>
			</clipPath>
			<g class="st17">
				<linearGradient id="SVGID_20_" gradientUnits="userSpaceOnUse" x1="519.0629" y1="228.1526" x2="522.2504" y2="228.1526">
					<stop  offset="0" style="stop-color:#FFFFFF"/>
					<stop  offset="1" style="stop-color:#EBEBEB"/>
				</linearGradient>
				<path class="st18" d="M522.3,215.4l-0.1,25.4c-1,0-2.1,0-3.1,0.1l0.1-25.4C520.2,215.4,521.2,215.4,522.3,215.4"/>
				<linearGradient id="SVGID_21_" gradientUnits="userSpaceOnUse" x1="514.2245" y1="228.325" x2="519.1349" y2="228.325">
					<stop  offset="0" style="stop-color:#FFFFFF"/>
					<stop  offset="1" style="stop-color:#EBEBEB"/>
				</linearGradient>
				<path class="st19" d="M519.1,215.5l-0.1,25.4c-1.6,0.1-3.2,0.2-4.8,0.3l0.1-25.4C515.9,215.6,517.5,215.5,519.1,215.5"/>
			</g>
		</g>
		<g>
			<linearGradient id="SVGID_22_" gradientUnits="userSpaceOnUse" x1="514.2244" y1="228.4704" x2="529.794" y2="228.4704">
				<stop  offset="0" style="stop-color:#FFFFFF"/>
				<stop  offset="1" style="stop-color:#EBEBEB"/>
			</linearGradient>
			<polygon class="st20" points="529.8,215.8 529.7,241.2 514.2,241.2 514.3,215.8 			"/>
		</g>
		<g>
			<linearGradient id="SVGID_23_" gradientUnits="userSpaceOnUse" x1="501.9365" y1="228.4706" x2="514.2966" y2="228.4706">
				<stop  offset="0" style="stop-color:#FFFFFF"/>
				<stop  offset="1" style="stop-color:#EBEBEB"/>
			</linearGradient>
			<polygon class="st21" points="514.3,215.8 514.2,241.2 501.9,241.2 502,215.8 			"/>
		</g>
		<g class="st4">
			<defs>
				<path id="SVGID_24_" class="st4" d="M531.6,240.9c0-8.5,0-16.9,0.1-25.4c13.8,0.4,26.3,3.8,36,9.4c0,8.4,0,16.9-0.1,25.3
					c0-8.4,0-16.9,0.1-25.3c0,0,0.1,0,0.1,0.1c0.1,0.1,0.2,0.1,0.3,0.2c0,8.5,0,16.9-0.1,25.4c-0.1-0.1-0.2-0.1-0.3-0.2
					C558,244.7,545.4,241.2,531.6,240.9z"/>
			</defs>
			<linearGradient id="SVGID_25_" gradientUnits="userSpaceOnUse" x1="531.5801" y1="232.9516" x2="568.0829" y2="232.9516">
				<stop  offset="0" style="stop-color:#FFFFFF"/>
				<stop  offset="1" style="stop-color:#EBEBEB"/>
			</linearGradient>
			<use xlink:href="#SVGID_24_"  style="overflow:visible;fill:url(#SVGID_25_);"/>
			<clipPath id="SVGID_26_">
				<use xlink:href="#SVGID_24_"  style="overflow:visible;"/>
			</clipPath>
			<g class="st22">
				<linearGradient id="SVGID_27_" gradientUnits="userSpaceOnUse" x1="559.3044" y1="246.5541" x2="583.6548" y2="246.5541">
					<stop  offset="0" style="stop-color:#FFFFFF"/>
					<stop  offset="1" style="stop-color:#EBEBEB"/>
				</linearGradient>
				<path class="st23" d="M583.7,246.9l-0.1,25.4c0-8.6-6.1-16.4-15.9-22c-2.6-1.5-5.4-2.9-8.4-4l0.1-25.4c3,1.2,5.8,2.5,8.4,4
					C577.6,230.5,583.6,238.3,583.7,246.9"/>
				<linearGradient id="SVGID_28_" gradientUnits="userSpaceOnUse" x1="552.6528" y1="232.4194" x2="559.3765" y2="232.4194">
					<stop  offset="0" style="stop-color:#FFFFFF"/>
					<stop  offset="1" style="stop-color:#EBEBEB"/>
				</linearGradient>
				<path class="st24" d="M559.4,220.8l-0.1,25.4c-2.1-0.8-4.4-1.6-6.7-2.2l0.1-25.4C555,219.2,557.2,220,559.4,220.8"/>
				<linearGradient id="SVGID_29_" gradientUnits="userSpaceOnUse" x1="547.0242" y1="230.6076" x2="552.7249" y2="230.6076">
					<stop  offset="0" style="stop-color:#FFFFFF"/>
					<stop  offset="1" style="stop-color:#EBEBEB"/>
				</linearGradient>
				<path class="st25" d="M552.7,218.6l-0.1,25.4c-1.8-0.5-3.7-1-5.6-1.4l0.1-25.4C549,217.6,550.9,218.1,552.7,218.6"/>
				<linearGradient id="SVGID_30_" gradientUnits="userSpaceOnUse" x1="541.791" y1="229.4629" x2="547.0963" y2="229.4629">
					<stop  offset="0" style="stop-color:#FFFFFF"/>
					<stop  offset="1" style="stop-color:#EBEBEB"/>
				</linearGradient>
				<path class="st26" d="M547.1,217.2l-0.1,25.4c-1.7-0.4-3.5-0.7-5.2-0.9l0.1-25.4C543.6,216.5,545.4,216.9,547.1,217.2"/>
				<linearGradient id="SVGID_31_" gradientUnits="userSpaceOnUse" x1="536.6668" y1="228.7218" x2="541.8631" y2="228.7218">
					<stop  offset="0" style="stop-color:#FFFFFF"/>
					<stop  offset="1" style="stop-color:#EBEBEB"/>
				</linearGradient>
				<path class="st27" d="M541.9,216.3l-0.1,25.4c-1.7-0.2-3.4-0.4-5.1-0.6l0.1-25.4C538.5,215.9,540.2,216.1,541.9,216.3"/>
				<linearGradient id="SVGID_32_" gradientUnits="userSpaceOnUse" x1="531.4218" y1="228.2953" x2="536.7389" y2="228.2953">
					<stop  offset="0" style="stop-color:#FFFFFF"/>
					<stop  offset="1" style="stop-color:#EBEBEB"/>
				</linearGradient>
				<path class="st28" d="M536.7,215.7l-0.1,25.4c-1.7-0.1-3.5-0.2-5.2-0.3l0.1-25.4C533.3,215.5,535,215.6,536.7,215.7"/>
			</g>
		</g>
		<g class="st4">
			<defs>
				<path id="SVGID_33_" class="st4" d="M529.7,241.2c0-8.5,0.1-16.9,0.1-25.4c14.7,0,28,3.4,37.7,8.9l-0.1,25.4
					C557.7,244.6,544.4,241.2,529.7,241.2z"/>
			</defs>
			<linearGradient id="SVGID_34_" gradientUnits="userSpaceOnUse" x1="529.722" y1="232.9445" x2="567.5151" y2="232.9445">
				<stop  offset="0" style="stop-color:#FFFFFF"/>
				<stop  offset="1" style="stop-color:#EBEBEB"/>
			</linearGradient>
			<use xlink:href="#SVGID_33_"  style="overflow:visible;fill:url(#SVGID_34_);"/>
			<clipPath id="SVGID_35_">
				<use xlink:href="#SVGID_33_"  style="overflow:visible;"/>
			</clipPath>
			<g class="st29">
				<linearGradient id="SVGID_36_" gradientUnits="userSpaceOnUse" x1="559.9213" y1="235.6327" x2="567.5151" y2="235.6327">
					<stop  offset="0" style="stop-color:#FFFFFF"/>
					<stop  offset="1" style="stop-color:#EBEBEB"/>
				</linearGradient>
				<path class="st30" d="M567.5,224.7l-0.1,25.4c-2.3-1.3-4.8-2.5-7.5-3.6l0.1-25.4C562.7,222.2,565.2,223.4,567.5,224.7"/>
				<linearGradient id="SVGID_37_" gradientUnits="userSpaceOnUse" x1="553.4186" y1="232.7508" x2="559.9934" y2="232.7508">
					<stop  offset="0" style="stop-color:#FFFFFF"/>
					<stop  offset="1" style="stop-color:#EBEBEB"/>
				</linearGradient>
				<path class="st31" d="M560,221.1l-0.1,25.4c-2.1-0.8-4.2-1.5-6.5-2.2l0.1-25.4C555.8,219.6,557.9,220.3,560,221.1"/>
				<linearGradient id="SVGID_38_" gradientUnits="userSpaceOnUse" x1="547.7941" y1="230.9655" x2="553.4907" y2="230.9655">
					<stop  offset="0" style="stop-color:#FFFFFF"/>
					<stop  offset="1" style="stop-color:#EBEBEB"/>
				</linearGradient>
				<path class="st32" d="M553.5,218.9l-0.1,25.4c-1.8-0.5-3.7-1-5.6-1.4l0.1-25.4C549.8,218,551.7,218.4,553.5,218.9"/>
				<linearGradient id="SVGID_39_" gradientUnits="userSpaceOnUse" x1="542.5167" y1="229.8179" x2="547.8662" y2="229.8179">
					<stop  offset="0" style="stop-color:#FFFFFF"/>
					<stop  offset="1" style="stop-color:#EBEBEB"/>
				</linearGradient>
				<path class="st33" d="M547.9,217.6l-0.1,25.4c-1.7-0.4-3.5-0.7-5.3-0.9l0.1-25.4C544.4,216.9,546.1,217.2,547.9,217.6"/>
				<linearGradient id="SVGID_40_" gradientUnits="userSpaceOnUse" x1="537.3469" y1="229.0706" x2="542.5888" y2="229.0706">
					<stop  offset="0" style="stop-color:#FFFFFF"/>
					<stop  offset="1" style="stop-color:#EBEBEB"/>
				</linearGradient>
				<path class="st34" d="M542.6,216.6l-0.1,25.4c-1.7-0.2-3.4-0.4-5.2-0.6l0.1-25.4C539.2,216.2,540.9,216.4,542.6,216.6"/>
				<linearGradient id="SVGID_41_" gradientUnits="userSpaceOnUse" x1="532.0777" y1="228.6408" x2="537.419" y2="228.6408">
					<stop  offset="0" style="stop-color:#FFFFFF"/>
					<stop  offset="1" style="stop-color:#EBEBEB"/>
				</linearGradient>
				<path class="st35" d="M537.4,216.1l-0.1,25.4c-1.7-0.1-3.5-0.2-5.3-0.3l0.1-25.4C533.9,215.8,535.7,215.9,537.4,216.1"/>
				<linearGradient id="SVGID_42_" gradientUnits="userSpaceOnUse" x1="529.722" y1="228.485" x2="532.1498" y2="228.485">
					<stop  offset="0" style="stop-color:#FFFFFF"/>
					<stop  offset="1" style="stop-color:#EBEBEB"/>
				</linearGradient>
				<path class="st36" d="M532.1,215.8l-0.1,25.4c-0.8,0-1.6,0-2.4,0l0.1-25.4C530.6,215.8,531.4,215.8,532.1,215.8"/>
			</g>
		</g>
		<g class="st4">
			<defs>
				<path id="SVGID_43_" class="st4" d="M568,250.5c0-8.5,0-16.9,0.1-25.4c9.6,5.6,15.5,13.3,15.6,21.8l-0.1,25.4
					C583.5,263.8,577.6,256.1,568,250.5z"/>
			</defs>
			<linearGradient id="SVGID_44_" gradientUnits="userSpaceOnUse" x1="568.0108" y1="248.6555" x2="583.6548" y2="248.6555">
				<stop  offset="0" style="stop-color:#FFFFFF"/>
				<stop  offset="1" style="stop-color:#EBEBEB"/>
			</linearGradient>
			<use xlink:href="#SVGID_43_"  style="overflow:visible;fill:url(#SVGID_44_);"/>
			<clipPath id="SVGID_45_">
				<use xlink:href="#SVGID_43_"  style="overflow:visible;"/>
			</clipPath>
			<g class="st37">
				<linearGradient id="SVGID_46_" gradientUnits="userSpaceOnUse" x1="559.3044" y1="246.5541" x2="583.6548" y2="246.5541">
					<stop  offset="0" style="stop-color:#FFFFFF"/>
					<stop  offset="1" style="stop-color:#EBEBEB"/>
				</linearGradient>
				<path class="st38" d="M583.7,246.9l-0.1,25.4c0-8.6-6.1-16.4-15.9-22c-2.6-1.5-5.4-2.9-8.4-4l0.1-25.4c3,1.2,5.8,2.5,8.4,4
					C577.6,230.5,583.6,238.3,583.7,246.9"/>
			</g>
		</g>
		<g>
			<linearGradient id="SVGID_47_" gradientUnits="userSpaceOnUse" x1="583.5827" y1="261.5883" x2="583.7106" y2="261.5883">
				<stop  offset="0" style="stop-color:#FFFFFF"/>
				<stop  offset="1" style="stop-color:#EBEBEB"/>
			</linearGradient>
			<polygon class="st39" points="583.7,250.9 583.6,276.3 583.6,272.3 583.7,246.9 			"/>
		</g>
		<g class="st4">
			<defs>
				<path id="SVGID_48_" class="st4" d="M583.7,251l-0.1,25.4c0,1.5-0.2,3-0.6,4.5c-3.8,15-26,26.5-53,26.5l0.1-25.4
					c26.9,0,49.2-11.5,53-26.5C583.5,254,583.7,252.5,583.7,251z"/>
			</defs>
			<linearGradient id="SVGID_49_" gradientUnits="userSpaceOnUse" x1="530.095" y1="279.2271" x2="583.7107" y2="279.2271">
				<stop  offset="0" style="stop-color:#FFFFFF"/>
				<stop  offset="1" style="stop-color:#EBEBEB"/>
			</linearGradient>
			<use xlink:href="#SVGID_48_"  style="overflow:visible;fill:url(#SVGID_49_);"/>
			<clipPath id="SVGID_50_">
				<use xlink:href="#SVGID_48_"  style="overflow:visible;"/>
			</clipPath>
			<g class="st40">
				<linearGradient id="SVGID_51_" gradientUnits="userSpaceOnUse" x1="583.6309" y1="263.9692" x2="583.7107" y2="263.9692">
					<stop  offset="0" style="stop-color:#FFFFFF"/>
					<stop  offset="1" style="stop-color:#EBEBEB"/>
				</linearGradient>
				<path class="st41" d="M583.7,251l-0.1,25.4c0,0.2,0,0.3,0,0.5l0.1-25.4C583.7,251.3,583.7,251.2,583.7,251"/>
				<linearGradient id="SVGID_52_" gradientUnits="userSpaceOnUse" x1="583.2769" y1="265.7549" x2="583.703" y2="265.7549">
					<stop  offset="0" style="stop-color:#FFFFFF"/>
					<stop  offset="1" style="stop-color:#EBEBEB"/>
				</linearGradient>
				<path class="st42" d="M583.7,251.5l-0.1,25.4c0,1-0.2,2.1-0.4,3.1l0.1-25.4C583.6,253.6,583.7,252.5,583.7,251.5"/>
				<linearGradient id="SVGID_53_" gradientUnits="userSpaceOnUse" x1="582.4115" y1="268.8085" x2="583.349" y2="268.8085">
					<stop  offset="0" style="stop-color:#FFFFFF"/>
					<stop  offset="1" style="stop-color:#EBEBEB"/>
				</linearGradient>
				<path class="st43" d="M583.3,254.6l-0.1,25.4c-0.1,0.3-0.1,0.6-0.2,0.9c-0.2,0.7-0.4,1.4-0.7,2.1l0.1-25.4
					c0.3-0.7,0.5-1.4,0.7-2.1C583.2,255.2,583.3,254.9,583.3,254.6"/>
				<linearGradient id="SVGID_54_" gradientUnits="userSpaceOnUse" x1="580.9818" y1="271.842" x2="582.4836" y2="271.842">
					<stop  offset="0" style="stop-color:#FFFFFF"/>
					<stop  offset="1" style="stop-color:#EBEBEB"/>
				</linearGradient>
				<path class="st44" d="M582.5,257.6l-0.1,25.4c-0.4,1-0.9,2.1-1.4,3l0.1-25.4C581.6,259.7,582.1,258.6,582.5,257.6"/>
				<linearGradient id="SVGID_55_" gradientUnits="userSpaceOnUse" x1="578.8364" y1="274.9602" x2="581.0539" y2="274.9602">
					<stop  offset="0" style="stop-color:#FFFFFF"/>
					<stop  offset="1" style="stop-color:#EBEBEB"/>
				</linearGradient>
				<path class="st45" d="M581.1,260.7l-0.1,25.4c-0.6,1.1-1.3,2.2-2.1,3.2l0.1-25.4C579.7,262.8,580.4,261.7,581.1,260.7"/>
				<linearGradient id="SVGID_56_" gradientUnits="userSpaceOnUse" x1="575.4771" y1="278.3615" x2="578.9084" y2="278.3615">
					<stop  offset="0" style="stop-color:#FFFFFF"/>
					<stop  offset="1" style="stop-color:#EBEBEB"/>
				</linearGradient>
				<path class="st46" d="M578.9,263.8l-0.1,25.4c-1,1.3-2.1,2.5-3.4,3.6l0.1-25.4C576.8,266.3,577.9,265.1,578.9,263.8"/>
				<linearGradient id="SVGID_57_" gradientUnits="userSpaceOnUse" x1="568.6696" y1="282.6939" x2="575.5492" y2="282.6939">
					<stop  offset="0" style="stop-color:#FFFFFF"/>
					<stop  offset="1" style="stop-color:#EBEBEB"/>
				</linearGradient>
				<path class="st47" d="M575.5,267.5l-0.1,25.4c-2,1.8-4.3,3.5-6.8,5l0.1-25.4C571.3,271,573.6,269.3,575.5,267.5"/>
				<linearGradient id="SVGID_58_" gradientUnits="userSpaceOnUse" x1="555.9896" y1="288.0417" x2="568.7416" y2="288.0417">
					<stop  offset="0" style="stop-color:#FFFFFF"/>
					<stop  offset="1" style="stop-color:#EBEBEB"/>
				</linearGradient>
				<path class="st48" d="M568.7,272.5l-0.1,25.4c-3.7,2.2-8,4.1-12.7,5.6l0.1-25.4C560.8,276.6,565,274.7,568.7,272.5"/>
				<linearGradient id="SVGID_59_" gradientUnits="userSpaceOnUse" x1="546.05" y1="292.0958" x2="556.0617" y2="292.0958">
					<stop  offset="0" style="stop-color:#FFFFFF"/>
					<stop  offset="1" style="stop-color:#EBEBEB"/>
				</linearGradient>
				<path class="st49" d="M556.1,278.2l-0.1,25.4c-3.1,1-6.5,1.8-9.9,2.5l0.1-25.4C549.6,280,552.9,279.2,556.1,278.2"/>
				<linearGradient id="SVGID_60_" gradientUnits="userSpaceOnUse" x1="539.2454" y1="293.8008" x2="546.1221" y2="293.8008">
					<stop  offset="0" style="stop-color:#FFFFFF"/>
					<stop  offset="1" style="stop-color:#EBEBEB"/>
				</linearGradient>
				<path class="st50" d="M546.1,280.6l-0.1,25.4c-2.2,0.4-4.5,0.7-6.8,0.9l0.1-25.4C541.6,281.3,543.9,281,546.1,280.6"/>
				<linearGradient id="SVGID_61_" gradientUnits="userSpaceOnUse" x1="533.2994" y1="294.4732" x2="539.3174" y2="294.4732">
					<stop  offset="0" style="stop-color:#FFFFFF"/>
					<stop  offset="1" style="stop-color:#EBEBEB"/>
				</linearGradient>
				<path class="st51" d="M539.3,281.6l-0.1,25.4c-1.9,0.2-3.9,0.3-5.9,0.4l0.1-25.4C535.4,281.9,537.4,281.8,539.3,281.6"/>
				<linearGradient id="SVGID_62_" gradientUnits="userSpaceOnUse" x1="530.095" y1="294.6986" x2="533.3714" y2="294.6986">
					<stop  offset="0" style="stop-color:#FFFFFF"/>
					<stop  offset="1" style="stop-color:#EBEBEB"/>
				</linearGradient>
				<path class="st52" d="M533.4,282l-0.1,25.4c-1.1,0-2.1,0.1-3.2,0.1l0.1-25.4C531.2,282,532.3,282,533.4,282"/>
			</g>
		</g>
		<g class="st4">
			<defs>
				<path id="SVGID_63_" class="st4" d="M583.6,276.4c0,0,0-0.1,0-0.1l0.1-25.4c0,0,0,0.1,0,0.1
					C583.7,258.6,583.7,268.8,583.6,276.4z"/>
			</defs>
			<linearGradient id="SVGID_64_" gradientUnits="userSpaceOnUse" x1="583.6386" y1="263.6691" x2="583.7108" y2="263.6691">
				<stop  offset="0" style="stop-color:#FFFFFF"/>
				<stop  offset="1" style="stop-color:#EBEBEB"/>
			</linearGradient>
			<use xlink:href="#SVGID_63_"  style="overflow:visible;fill:url(#SVGID_64_);"/>
			<clipPath id="SVGID_65_">
				<use xlink:href="#SVGID_63_"  style="overflow:visible;"/>
			</clipPath>
			<g class="st53">
				<linearGradient id="SVGID_66_" gradientUnits="userSpaceOnUse" x1="583.6386" y1="263.669" x2="583.7108" y2="263.669">
					<stop  offset="0" style="stop-color:#FFFFFF"/>
					<stop  offset="1" style="stop-color:#EBEBEB"/>
				</linearGradient>
				<path class="st54" d="M583.7,251l-0.1,25.4c0,0,0-0.1,0-0.1l0.1-25.4C583.7,250.9,583.7,251,583.7,251"/>
			</g>
		</g>
		<g>
			<linearGradient id="SVGID_67_" gradientUnits="userSpaceOnUse" x1="514.2964" y1="220.0608" x2="567.5151" y2="220.0608">
				<stop  offset="0" style="stop-color:#FFFFFF"/>
				<stop  offset="1" style="stop-color:#EBEBEB"/>
			</linearGradient>
			<path class="st55" d="M529.2,215.4c14.8,0,28.3,3.5,38,9.1c0.1,0.1,0.2,0.1,0.3,0.2c-9.7-5.5-23-8.9-37.7-8.9l-15.5,0
				c2.6-0.2,5.3-0.3,8-0.3L529.2,215.4z"/>
		</g>
		<g>
			<linearGradient id="SVGID_68_" gradientUnits="userSpaceOnUse" x1="251.5126" y1="261.5995" x2="251.6073" y2="261.5995">
				<stop  offset="0" style="stop-color:#FFFFFF"/>
				<stop  offset="1" style="stop-color:#EBEBEB"/>
			</linearGradient>
			<polygon class="st56" points="251.6,250.9 251.5,276.3 251.5,272.3 251.6,246.9 			"/>
		</g>
		<g>
			<linearGradient id="SVGID_69_" gradientUnits="userSpaceOnUse" x1="583.0691" y1="271.7577" x2="583.181" y2="271.7577">
				<stop  offset="0" style="stop-color:#FFFFFF"/>
				<stop  offset="1" style="stop-color:#EBEBEB"/>
			</linearGradient>
			<polygon class="st57" points="583.2,262.6 583.1,288 583.1,280.9 583.1,255.5 			"/>
		</g>
		<g>
			<linearGradient id="SVGID_70_" gradientUnits="userSpaceOnUse" x1="468.8345" y1="294.726" x2="530.1671" y2="294.726">
				<stop  offset="0" style="stop-color:#FFFFFF"/>
				<stop  offset="1" style="stop-color:#EBEBEB"/>
			</linearGradient>
			<polygon class="st58" points="530.2,282 530.1,307.4 468.8,307.4 468.9,282 			"/>
		</g>
		<g>
			<linearGradient id="SVGID_71_" gradientUnits="userSpaceOnUse" x1="468.8343" y1="342.051" x2="469.4391" y2="342.051">
				<stop  offset="0" style="stop-color:#FFFFFF"/>
				<stop  offset="1" style="stop-color:#EBEBEB"/>
			</linearGradient>
			<polygon class="st59" points="469.4,376.7 469.4,402.1 468.8,307.4 468.9,282 			"/>
		</g>
		<linearGradient id="SVGID_72_" gradientUnits="userSpaceOnUse" x1="251.5847" y1="270.9265" x2="723.6441" y2="270.9265">
			<stop  offset="0" style="stop-color:#FFFFFF"/>
			<stop  offset="1" style="stop-color:#EBEBEB"/>
		</linearGradient>
		<path class="st60" d="M707.8,146l-4.9-2.8c-21.1-12.2-55.1-12.2-76,0L502,215.8l-196.9,0c-29.6,0-53.6,13.9-53.5,31.1l0,4
			c0.1,8.6,6.1,16.4,15.9,22c9.8,5.6,23.2,9.1,38,9.1l163.4,0l0.5,94.7c0,8.6,6.1,16.4,15.9,22c9.8,5.6,23.2,9.1,38,9.1h6.9
			c29.7,0,53.6-13.9,53.5-31.1l-0.6-114.1L708,190C728.9,177.9,728.8,158.2,707.8,146z M583.7,246.9c0-8.6-6.1-16.3-16-22.1
			c0.1,0,0.1,0.1,0.2,0.1C577.6,230.5,583.6,238.3,583.7,246.9z M583.1,255.5l0,7L583.1,255.5C583.1,255.5,583.1,255.5,583.1,255.5z
			 M522.3,215.4h6.9c14.2,0,27.1,3.2,37.2,8.7c-9.6-5.2-22.5-8.4-36.6-8.4l-15.5,0C516.9,215.5,519.5,215.4,522.3,215.4z"/>
		<g>
			<linearGradient id="SVGID_73_" gradientUnits="userSpaceOnUse" x1="583.1089" y1="228.0965" x2="723.6439" y2="228.0965">
				<stop  offset="0" style="stop-color:#FFFFFF"/>
				<stop  offset="1" style="stop-color:#EBEBEB"/>
			</linearGradient>
			<path class="st61" d="M723.6,168.2c0,0.5-0.1,1.1-0.1,1.6c-0.1,0.6-0.1,1.1-0.2,1.7c-0.1,0.5-0.2,0.9-0.3,1.4
				c-0.1,0.5-0.3,1.1-0.5,1.6c-0.2,0.4-0.4,0.9-0.6,1.3c-0.2,0.6-0.5,1.1-0.8,1.7c-0.2,0.4-0.5,0.8-0.7,1.2
				c-0.4,0.6-0.8,1.3-1.3,1.9c-0.3,0.4-0.6,0.7-0.9,1.1c-0.7,0.8-1.4,1.6-2.3,2.4c-0.3,0.3-0.6,0.6-0.9,0.9
				c-0.5,0.5-1.1,0.9-1.6,1.3c-0.5,0.4-1,0.8-1.5,1.2c-0.6,0.4-1.3,0.9-1.9,1.3c-0.7,0.4-1.3,0.9-2,1.3l-124.9,72.6l-0.1,25.4
				L708,215.4c0.2-0.1,0.4-0.3,0.7-0.4c0.5-0.3,0.9-0.6,1.4-0.9c0.7-0.4,1.3-0.8,1.9-1.3c0.5-0.4,1-0.8,1.5-1.2
				c0.6-0.5,1.1-0.9,1.7-1.4c0.1-0.1,0.2-0.2,0.3-0.3c0.2-0.2,0.4-0.4,0.6-0.6c0.8-0.8,1.6-1.6,2.3-2.4c0.2-0.2,0.4-0.4,0.5-0.5
				c0.1-0.2,0.2-0.4,0.4-0.5c0.5-0.6,0.9-1.2,1.3-1.9c0.2-0.3,0.4-0.5,0.5-0.8c0.1-0.1,0.1-0.3,0.2-0.4c0.3-0.6,0.5-1.1,0.8-1.7
				c0.1-0.3,0.3-0.6,0.5-1c0-0.1,0.1-0.2,0.1-0.3c0.2-0.5,0.3-1.1,0.5-1.6c0.1-0.4,0.2-0.7,0.3-1.1c0-0.1,0-0.2,0-0.3
				c0.1-0.6,0.1-1.1,0.2-1.7c0-0.4,0.1-0.7,0.1-1.1c0-0.2,0-0.3,0-0.5l0,0L723.6,168.2z"/>
			<linearGradient id="SVGID_74_" gradientUnits="userSpaceOnUse" x1="251.5353" y1="279.169" x2="468.9066" y2="279.169">
				<stop  offset="0" style="stop-color:#FFFFFF"/>
				<stop  offset="1" style="stop-color:#EBEBEB"/>
			</linearGradient>
			<path class="st62" d="M301.5,281.9c-0.9,0-1.7-0.1-2.5-0.1c-0.9-0.1-1.8-0.2-2.7-0.2c-0.8-0.1-1.7-0.2-2.5-0.3
				c-0.8-0.1-1.7-0.2-2.5-0.4c-0.9-0.1-1.8-0.3-2.7-0.5c-0.7-0.1-1.5-0.3-2.2-0.5c-1.1-0.2-2.2-0.5-3.3-0.8
				c-0.6-0.2-1.2-0.3-1.9-0.5c-2-0.6-3.9-1.2-5.8-1.9c-0.9-0.4-1.8-0.7-2.6-1.1c-0.5-0.2-1-0.4-1.5-0.6c-1.3-0.6-2.6-1.3-3.8-2
				c-9.8-5.6-15.8-13.4-15.9-22l-0.1,25.4c0.1,8.6,6.1,16.4,15.9,22c1.2,0.7,2.5,1.4,3.8,2c0.4,0.2,0.9,0.4,1.3,0.6
				c0.9,0.4,1.8,0.8,2.7,1.2c0,0,0,0,0.1,0c1.8,0.7,3.8,1.4,5.8,1.9c0.2,0.1,0.4,0.2,0.7,0.2c0.4,0.1,0.8,0.2,1.2,0.3
				c1.1,0.3,2.2,0.6,3.3,0.8c0.4,0.1,0.8,0.2,1.2,0.3c0.3,0.1,0.7,0.1,1,0.2c0.9,0.2,1.8,0.3,2.8,0.5c0.5,0.1,1,0.2,1.5,0.3
				c0.3,0,0.7,0.1,1,0.1c0.8,0.1,1.7,0.2,2.5,0.3c0.5,0.1,1.1,0.1,1.6,0.2c0.4,0,0.7,0,1.1,0.1c0.8,0.1,1.7,0.1,2.6,0.1
				c0.5,0,1.1,0.1,1.6,0.1c0.8,0,1.6,0,2.4,0l163.4,0l0.1-25.4l-163.4,0C304.2,282,302.8,282,301.5,281.9z"/>
			<linearGradient id="SVGID_75_" gradientUnits="userSpaceOnUse" x1="469.3672" y1="404.9337" x2="583.8231" y2="404.9337">
				<stop  offset="0" style="stop-color:#FFFFFF"/>
				<stop  offset="1" style="stop-color:#EBEBEB"/>
			</linearGradient>
			<path class="st63" d="M583.5,380.1c-0.1,0.6-0.3,1.1-0.4,1.6c-0.1,0.5-0.2,0.9-0.4,1.4c-0.2,0.5-0.4,1-0.6,1.4
				c-0.2,0.5-0.5,1.1-0.7,1.6c-0.2,0.4-0.5,0.7-0.7,1.1c-0.4,0.7-0.8,1.3-1.3,2c-0.3,0.3-0.5,0.7-0.8,1c-0.7,0.8-1.4,1.6-2.2,2.4
				c-0.3,0.3-0.7,0.6-1,1c-0.6,0.5-1.2,1-1.8,1.5c-0.5,0.4-0.9,0.7-1.4,1.1c-0.7,0.5-1.4,0.9-2.1,1.4c-0.5,0.3-0.9,0.6-1.4,0.9
				c-1.6,1-3.3,1.8-5.1,2.7c-0.4,0.2-0.8,0.4-1.3,0.6c-1.7,0.7-3.4,1.4-5.2,2c-0.3,0.1-0.6,0.2-0.9,0.3c-1,0.3-2.1,0.6-3.2,0.9
				c-0.5,0.1-1.1,0.3-1.6,0.5c-1.6,0.4-3.2,0.7-4.8,1c-0.1,0-0.2,0-0.2,0.1c-2,0.4-4.1,0.6-6.2,0.9c-0.7,0.1-1.5,0.1-2.2,0.2
				c-1.1,0.1-2.2,0.2-3.3,0.2c-1.4,0.1-2.8,0.1-4.2,0.1h-6.9c-1.3,0-2.7-0.1-4-0.1c-0.9,0-1.7-0.1-2.6-0.1c-0.9-0.1-1.8-0.2-2.7-0.2
				c-0.8-0.1-1.7-0.2-2.5-0.3c-0.8-0.1-1.7-0.2-2.5-0.4c-0.9-0.1-1.9-0.3-2.8-0.5c-0.7-0.1-1.5-0.3-2.2-0.5
				c-1.1-0.2-2.2-0.5-3.3-0.8c-0.6-0.2-1.2-0.3-1.9-0.5c-2-0.6-3.9-1.2-5.8-1.9c-0.9-0.4-1.8-0.8-2.6-1.1c-0.5-0.2-1-0.4-1.5-0.6
				c-1.3-0.6-2.6-1.3-3.8-2c-9.8-5.6-15.8-13.4-15.9-22l-0.1,25.4c0,8.6,6.1,16.4,15.9,22c1.2,0.7,2.5,1.4,3.8,2
				c0.4,0.2,0.9,0.4,1.4,0.6c0.9,0.4,1.7,0.8,2.7,1.2c0,0,0,0,0.1,0c1.8,0.7,3.8,1.4,5.8,1.9c0.2,0.1,0.4,0.2,0.7,0.2
				c0.4,0.1,0.8,0.2,1.2,0.3c1.1,0.3,2.2,0.6,3.3,0.8c0.4,0.1,0.8,0.2,1.2,0.3c0.3,0.1,0.7,0.1,1,0.2c0.9,0.2,1.8,0.3,2.8,0.5
				c0.5,0.1,1,0.2,1.5,0.3c0.3,0,0.7,0.1,1,0.1c0.8,0.1,1.7,0.2,2.5,0.3c0.6,0.1,1.1,0.1,1.7,0.2c0.4,0,0.7,0,1.1,0.1
				c0.8,0.1,1.7,0.1,2.6,0.1c0.6,0,1.1,0.1,1.7,0.1c0.8,0,1.5,0,2.3,0h6.9c1.1,0,2.1,0,3.2-0.1c0.4,0,0.7-0.1,1.1-0.1
				c1.1-0.1,2.2-0.1,3.3-0.2c0.5,0,1-0.1,1.6-0.1c0.2,0,0.5-0.1,0.7-0.1c2.1-0.2,4.2-0.5,6.2-0.9l0,0c0.1,0,0.2,0,0.3-0.1
				c1.6-0.3,3.2-0.6,4.8-1c0.6-0.1,1.1-0.3,1.6-0.5c1.1-0.3,2.2-0.6,3.2-0.9c0.1,0,0.2,0,0.3-0.1c0.2-0.1,0.4-0.2,0.6-0.2
				c1.8-0.6,3.6-1.3,5.2-2c0.4-0.2,0.8-0.4,1.3-0.5c1.8-0.8,3.5-1.7,5.1-2.7c0.1,0,0.2-0.1,0.3-0.1c0.4-0.2,0.7-0.5,1.1-0.8
				c0.7-0.5,1.4-0.9,2.1-1.4c0.5-0.3,0.9-0.7,1.4-1.1c0.6-0.5,1.2-1,1.8-1.5c0.1-0.1,0.3-0.3,0.5-0.4c0.2-0.2,0.3-0.4,0.5-0.6
				c0.8-0.8,1.6-1.6,2.2-2.4c0.2-0.2,0.4-0.4,0.5-0.6c0.1-0.1,0.2-0.3,0.3-0.4c0.5-0.6,0.9-1.3,1.3-2c0.2-0.3,0.4-0.6,0.6-0.8
				c0-0.1,0.1-0.2,0.1-0.3c0.3-0.5,0.5-1.1,0.7-1.6c0.2-0.4,0.4-0.8,0.6-1.2c0-0.1,0-0.2,0.1-0.2c0.2-0.5,0.3-0.9,0.4-1.4
				c0.1-0.5,0.3-0.9,0.4-1.4c0-0.1,0-0.2,0-0.3c0.1-0.5,0.1-1,0.2-1.4c0-0.5,0.1-0.9,0.2-1.4c0-0.2,0-0.4,0-0.6l0.1-25.4
				c0,0.7-0.1,1.3-0.2,2C583.6,379.1,583.6,379.6,583.5,380.1z"/>
		</g>
	</g>
</g>
</svg>
