<?xml version="1.0" encoding="utf-8"?>
<svg version="1.1" xmlns:xlink="http://www.w3.org/1999/xlink" width="40px" height="40px" xmlns="http://www.w3.org/2000/svg">
  <g transform="matrix(1 0 0 1 -270 -329 )">
    <path d="M 271 349  A 19 19 0 0 1 290 330 A 19 19 0 0 1 309 349 A 19 19 0 0 1 290 368 A 19 19 0 0 1 271 349 Z " fill-rule="nonzero" fill="#ffffff" stroke="none" />
    <path d="M 270.5 349  A 19.5 19.5 0 0 1 290 329.5 A 19.5 19.5 0 0 1 309.5 349 A 19.5 19.5 0 0 1 290 368.5 A 19.5 19.5 0 0 1 270.5 349 Z " stroke-width="1" stroke-dasharray="3,1" stroke="#cccccc" fill="none" stroke-dashoffset="0.5" />
  </g>
</svg>